<svg id="wave" style="transform:rotate(180deg); transition: 0.3s" viewBox="0 0 1440 490" version="1.1" xmlns="http://www.w3.org/2000/svg"><defs><linearGradient id="sw-gradient-0" x1="0" x2="0" y1="1" y2="0"><stop stop-color="rgba(245, 245, 245, 1)" offset="0%"></stop><stop stop-color="rgba(245, 245, 245, 1)" offset="100%"></stop></linearGradient></defs><path style="transform:translate(0, 0px); opacity:1" fill="url(#sw-gradient-0)" d="M0,196L80,187.8C160,180,320,163,480,204.2C640,245,800,343,960,375.7C1120,408,1280,376,1440,310.3C1600,245,1760,147,1920,106.2C2080,65,2240,82,2400,81.7C2560,82,2720,65,2880,49C3040,33,3200,16,3360,8.2C3520,0,3680,0,3840,24.5C4000,49,4160,98,4320,114.3C4480,131,4640,114,4800,155.2C4960,196,5120,294,5280,285.8C5440,278,5600,163,5760,122.5C5920,82,6080,114,6240,179.7C6400,245,6560,343,6720,326.7C6880,310,7040,180,7200,163.3C7360,147,7520,245,7680,253.2C7840,261,8000,180,8160,163.3C8320,147,8480,196,8640,253.2C8800,310,8960,376,9120,367.5C9280,359,9440,278,9600,228.7C9760,180,9920,163,10080,171.5C10240,180,10400,212,10560,261.3C10720,310,10880,376,11040,400.2C11200,425,11360,408,11440,400.2L11520,392L11520,490L11440,490C11360,490,11200,490,11040,490C10880,490,10720,490,10560,490C10400,490,10240,490,10080,490C9920,490,9760,490,9600,490C9440,490,9280,490,9120,490C8960,490,8800,490,8640,490C8480,490,8320,490,8160,490C8000,490,7840,490,7680,490C7520,490,7360,490,7200,490C7040,490,6880,490,6720,490C6560,490,6400,490,6240,490C6080,490,5920,490,5760,490C5600,490,5440,490,5280,490C5120,490,4960,490,4800,490C4640,490,4480,490,4320,490C4160,490,4000,490,3840,490C3680,490,3520,490,3360,490C3200,490,3040,490,2880,490C2720,490,2560,490,2400,490C2240,490,2080,490,1920,490C1760,490,1600,490,1440,490C1280,490,1120,490,960,490C800,490,640,490,480,490C320,490,160,490,80,490L0,490Z"></path></svg>